<svg width="2119" height="273" viewBox="0 0 2119 273" fill="none" xmlns="http://www.w3.org/2000/svg">
<path d="M328.365 110.406C328.365 115.86 330.388 119.819 334.435 122.282C338.482 125.274 347.103 128.353 360.299 131.52C374.199 134.863 384.315 139.437 390.649 145.243C397.159 151.049 400.414 159.407 400.414 170.315C400.414 181.752 396.104 190.989 387.482 198.027C379.037 205.065 367.953 208.584 354.229 208.584C334.347 208.584 316.401 201.546 300.39 187.47L314.113 171.107C327.485 182.544 341.033 188.262 354.757 188.262C361.619 188.262 367.161 186.766 371.384 183.775C375.606 180.608 377.718 176.562 377.718 171.635C377.718 166.709 375.782 162.838 371.911 160.023C368.216 157.208 361.531 154.656 351.854 152.369C335.139 148.498 323.526 143.924 317.016 138.645C309.451 132.839 305.668 123.954 305.668 111.99C305.668 100.377 309.891 91.3161 318.336 84.8062C326.781 78.1203 337.602 74.7773 350.798 74.7773C368.568 74.7773 383.788 79.9677 396.456 90.3484L384.843 106.711C380.973 103.192 375.782 100.377 369.272 98.266C362.762 95.9787 356.34 94.835 350.006 94.835C343.496 94.835 338.218 96.2426 334.171 99.0577C330.3 101.697 328.365 105.48 328.365 110.406ZM503.982 207H485.244V193.804C476.975 203.657 466.066 208.584 452.519 208.584C442.138 208.584 433.604 205.68 426.919 199.874C420.409 193.892 417.154 186.151 417.154 176.649C417.154 167.148 420.673 159.935 427.71 155.008C434.748 150.082 444.425 147.619 456.741 147.619H483.661V143.924C483.661 130.904 476.359 124.394 461.756 124.394C452.607 124.394 443.105 127.737 433.253 134.423L424.015 121.491C436.156 111.99 449.703 107.239 464.659 107.239C476.799 107.239 486.388 110.318 493.426 116.476C500.464 122.458 503.982 131.52 503.982 143.66V207ZM483.397 162.134H460.172C445.217 162.134 437.739 166.797 437.739 176.122C437.739 180.872 439.587 184.567 443.281 187.206C446.976 189.669 452.167 190.901 458.853 190.901C465.714 190.901 471.521 189.054 476.271 185.359C481.022 181.488 483.397 176.474 483.397 170.315V162.134ZM633.596 157.384C633.596 172.163 629.021 184.391 619.872 194.068C610.723 203.745 599.814 208.584 587.146 208.584C574.654 208.584 563.482 203.129 553.629 192.221V207H533.043V70.0268H553.629V125.977C561.898 113.485 572.543 107.239 585.563 107.239C599.111 107.239 610.459 111.902 619.608 121.227C628.933 130.552 633.596 142.604 633.596 157.384ZM582.396 190.109C590.841 190.109 597.967 187.118 603.773 181.136C609.755 174.978 612.746 167.236 612.746 157.911C612.746 148.586 609.755 140.845 603.773 134.687C597.967 128.529 590.929 125.449 582.66 125.449C574.39 125.449 567.441 128.616 561.81 134.951C556.18 141.109 553.365 148.762 553.365 157.911C553.365 167.236 556.18 174.978 561.81 181.136C567.441 187.118 574.302 190.109 582.396 190.109ZM736.482 207H717.744V193.804C709.475 203.657 698.566 208.584 685.019 208.584C674.638 208.584 666.104 205.68 659.419 199.874C652.909 193.892 649.654 186.151 649.654 176.649C649.654 167.148 653.173 159.935 660.21 155.008C667.248 150.082 676.925 147.619 689.241 147.619H716.161V143.924C716.161 130.904 708.859 124.394 694.256 124.394C685.107 124.394 675.605 127.737 665.753 134.423L656.515 121.491C668.656 111.99 682.203 107.239 697.159 107.239C709.299 107.239 718.888 110.318 725.926 116.476C732.964 122.458 736.482 131.52 736.482 143.66V207ZM715.897 162.134H692.672C677.717 162.134 670.239 166.797 670.239 176.122C670.239 180.872 672.087 184.567 675.781 187.206C679.476 189.669 684.667 190.901 691.353 190.901C698.214 190.901 704.021 189.054 708.771 185.359C713.522 181.488 715.897 176.474 715.897 170.315V162.134ZM790.879 108.823H816.743V125.449H790.879V207H770.294V125.449H757.89V108.823H770.294V101.169C770.294 91.1402 773.373 83.0467 779.531 76.8887C785.689 70.5546 793.255 67.3876 802.228 67.3876C811.201 67.3876 819.207 70.6426 826.244 77.1526L817.799 91.668C813.576 87.4454 809.354 85.334 805.131 85.334C800.732 85.334 797.213 86.7416 794.574 89.5567C792.111 92.1959 790.879 95.8907 790.879 100.641V108.823ZM857.379 207H836.793V70.0268H857.379V207ZM875.403 236.295L884.904 219.668C889.303 223.715 893.789 225.738 898.364 225.738C902.763 225.738 906.457 224.067 909.448 220.724C912.44 217.557 913.935 213.95 913.935 209.903C913.935 208.32 900.651 174.626 874.084 108.823H896.253L925.811 181.136L955.106 108.823H977.275L929.506 225.474C926.691 231.808 922.644 236.823 917.366 240.518C912.088 244.212 906.281 246.06 899.947 246.06C890.798 246.06 882.617 242.805 875.403 236.295ZM1091.53 77.9443C1114.58 77.9443 1132.35 83.5746 1144.85 94.835C1157.34 105.92 1163.58 121.579 1163.58 141.812C1163.58 162.398 1157.43 178.409 1145.11 189.845C1132.79 201.282 1114.41 207 1089.95 207H1047.2V77.9443H1091.53ZM1090.74 98.0021H1069.1V186.414H1093.12C1108.95 186.414 1121.01 182.72 1129.27 175.33C1137.54 167.764 1141.68 156.768 1141.68 142.34C1141.68 112.781 1124.7 98.0021 1090.74 98.0021ZM1279.86 166.885H1202.79C1203.32 173.922 1206.58 179.641 1212.56 184.039C1218.54 188.438 1225.49 190.637 1233.41 190.637C1245.9 190.637 1255.23 186.766 1261.38 179.025L1273.26 191.957C1262.7 203.041 1248.89 208.584 1231.83 208.584C1217.75 208.584 1205.96 203.921 1196.46 194.596C1186.96 185.271 1182.21 172.955 1182.21 157.647C1182.21 142.692 1187.05 130.552 1196.72 121.227C1206.4 111.902 1218.1 107.239 1231.83 107.239C1245.55 107.239 1256.99 111.374 1266.14 119.643C1275.28 127.913 1279.86 138.909 1279.86 152.633V166.885ZM1259.27 150.522C1259.27 142.604 1256.72 136.358 1251.62 131.784C1246.69 127.209 1240.27 124.922 1232.35 124.922C1224.44 124.922 1217.49 127.297 1211.5 132.047C1205.7 136.798 1202.79 142.956 1202.79 150.522H1259.27ZM1328.66 207L1289.33 108.823H1310.71L1340.53 182.984L1370.62 108.823H1392L1352.41 207H1328.66ZM1499.61 166.885H1422.54C1423.07 173.922 1426.33 179.641 1432.31 184.039C1438.29 188.438 1445.24 190.637 1453.16 190.637C1465.65 190.637 1474.98 186.766 1481.13 179.025L1493.01 191.957C1482.45 203.041 1468.64 208.584 1451.58 208.584C1437.5 208.584 1425.71 203.921 1416.21 194.596C1406.71 185.271 1401.96 172.955 1401.96 157.647C1401.96 142.692 1406.8 130.552 1416.47 121.227C1426.15 111.902 1437.85 107.239 1451.58 107.239C1465.3 107.239 1476.74 111.374 1485.89 119.643C1495.03 127.913 1499.61 138.909 1499.61 152.633V166.885ZM1479.02 150.522C1479.02 142.604 1476.47 136.358 1471.37 131.784C1466.44 127.209 1460.02 124.922 1452.1 124.922C1444.19 124.922 1437.24 127.297 1431.25 132.047C1425.45 136.798 1422.54 142.956 1422.54 150.522H1479.02ZM1543.13 207H1522.54V70.0268H1543.13V207ZM1618.42 190.109C1627.4 190.109 1634.79 187.118 1640.59 181.136C1646.57 175.154 1649.57 167.412 1649.57 157.911C1649.57 148.41 1646.57 140.669 1640.59 134.687C1634.79 128.704 1627.4 125.713 1618.42 125.713C1609.45 125.713 1602.06 128.704 1596.25 134.687C1590.45 140.669 1587.54 148.41 1587.54 157.911C1587.54 167.412 1590.45 175.066 1596.25 180.872C1602.06 187.03 1609.45 190.109 1618.42 190.109ZM1618.42 208.584C1603.64 208.584 1591.33 203.745 1581.47 194.068C1571.62 184.215 1566.7 172.163 1566.7 157.911C1566.7 143.66 1571.62 131.696 1581.47 122.019C1591.33 112.166 1603.64 107.239 1618.42 107.239C1633.2 107.239 1645.52 112.166 1655.37 122.019C1665.22 131.696 1670.15 143.66 1670.15 157.911C1670.15 171.635 1665.22 183.599 1655.37 193.804C1645.52 203.657 1633.2 208.584 1618.42 208.584ZM1794.1 157.384C1794.1 172.163 1789.52 184.391 1780.37 194.068C1771.22 203.745 1760.31 208.584 1747.65 208.584C1735.15 208.584 1723.98 203.129 1714.13 192.221V242.893H1693.54V108.823H1714.13V125.977C1722.4 113.485 1733.04 107.239 1746.06 107.239C1759.61 107.239 1770.96 111.902 1780.11 121.227C1789.43 130.552 1794.1 142.604 1794.1 157.384ZM1742.9 190.109C1751.34 190.109 1758.47 187.118 1764.27 181.136C1770.26 174.978 1773.25 167.236 1773.25 157.911C1773.25 148.586 1770.26 140.845 1764.27 134.687C1758.47 128.529 1751.43 125.449 1743.16 125.449C1734.89 125.449 1727.94 128.616 1722.31 134.951C1716.68 141.109 1713.86 148.762 1713.86 157.911C1713.86 167.236 1716.68 174.978 1722.31 181.136C1727.94 187.118 1734.8 190.109 1742.9 190.109ZM1908.86 166.885H1831.79C1832.32 173.922 1835.58 179.641 1841.56 184.039C1847.54 188.438 1854.49 190.637 1862.41 190.637C1874.9 190.637 1884.23 186.766 1890.38 179.025L1902.26 191.957C1891.7 203.041 1877.89 208.584 1860.83 208.584C1846.75 208.584 1834.96 203.921 1825.46 194.596C1815.96 185.271 1811.21 172.955 1811.21 157.647C1811.21 142.692 1816.05 130.552 1825.72 121.227C1835.4 111.902 1847.1 107.239 1860.83 107.239C1874.55 107.239 1885.99 111.374 1895.14 119.643C1904.28 127.913 1908.86 138.909 1908.86 152.633V166.885ZM1888.27 150.522C1888.27 142.604 1885.72 136.358 1880.62 131.784C1875.69 127.209 1869.27 124.922 1861.35 124.922C1853.44 124.922 1846.49 127.297 1840.5 132.047C1834.7 136.798 1831.79 142.956 1831.79 150.522H1888.27ZM1952.38 164.773V207H1931.79V108.823H1952.38V128.353C1955.72 122.195 1960.21 117.18 1965.84 113.309C1971.64 109.438 1977.71 107.415 1984.05 107.239L1984.31 128.089H1983.26C1973.23 128.089 1965.57 131.344 1960.3 137.854C1955.02 144.364 1952.38 153.337 1952.38 164.773ZM2038.82 208.584C2022.99 208.584 2008.74 203.657 1996.07 193.804L2006.1 177.705C2017.36 186.326 2028.44 190.637 2039.35 190.637C2043.93 190.637 2047.53 189.581 2050.17 187.47C2052.99 185.183 2054.4 182.368 2054.4 179.025C2054.4 174.098 2047.89 169.7 2034.87 165.829C2034.51 165.653 2034.07 165.477 2033.55 165.301C2033.19 165.125 2032.93 165.037 2032.75 165.037C2012.35 159.583 2002.14 150.346 2002.14 137.326C2002.14 128.177 2005.57 120.875 2012.43 115.421C2019.47 109.966 2028.71 107.239 2040.14 107.239C2051.4 107.239 2062.14 110.582 2072.34 117.268L2064.69 132.575C2056.77 127.297 2048.06 124.658 2038.56 124.658C2027.48 124.658 2021.93 128.177 2021.93 135.214C2021.93 138.205 2022.99 140.405 2025.1 141.812C2027.39 143.044 2031.08 144.276 2036.19 145.507C2043.93 147.619 2050.44 149.73 2055.72 151.841C2059.23 153.425 2062.31 155.096 2064.95 156.856C2071.64 161.43 2074.98 168.38 2074.98 177.705C2074.98 186.854 2071.55 194.332 2064.69 200.138C2058 205.768 2049.38 208.584 2038.82 208.584Z" fill="white"/>
<g clip-path="url(#clip0_90_60)">
<path d="M186.666 137L144 94.3335L133.334 105L165.331 137L101.334 201L37.3337 137L101.334 72.9998L122.666 94.3335L133.334 83.666L101.334 51.666L16 137C20.1656 141.165 101.332 222.333 101.332 222.333L186.666 137Z" fill="#007D9C"/>
<path d="M101.334 137L186.667 222.334L272.001 137L186.667 51.666L101.334 137ZM250.667 137L186.667 201L122.667 137L186.667 72.9998L250.667 137Z" fill="#00AED9"/>
<path d="M177.942 231.059L144 197.118L110.059 231.059L144 265L177.942 231.059Z" fill="#007D9C"/>
<path d="M177.941 42.9411L144 9L110.058 42.9411L144 76.8822L177.941 42.9411Z" fill="#00AED9"/>
</g>
<defs>
<clipPath id="clip0_90_60">
<rect width="256" height="256" fill="white" transform="translate(16 9)"/>
</clipPath>
</defs>
</svg>
